<?xml version="1.0" encoding="utf-8"?>
<!-- Generator: Adobe Illustrator 26.0.3, SVG Export Plug-In . SVG Version: 6.00 Build 0)  -->
<svg version="1.0" id="Layer_1" xmlns="http://www.w3.org/2000/svg" xmlns:xlink="http://www.w3.org/1999/xlink" x="0px" y="0px"
	 viewBox="0 0 866 614.2" style="enable-background:new 0 0 866 614.2;" xml:space="preserve">
<style type="text/css">
	.st0{fill:#006A65;}
	.st1{fill:#006C67;}
	.st2{fill:#E31936;}
</style>
<path id="Path_9164" class="st0" d="M298.4,344.7h54.6l-5.3,10.8c-0.5-1.1-1.7-1.9-2.9-2h-14.6L308.1,399h-14.3l22.2-45.6h-18.1
	c-1.9,0.1-3.8,0.8-5.3,2L298.4,344.7z M461.2,388.5l-5,10.5h-52.9l24.8-50.5c0.3-0.6,0.4-1.3,0.3-2c0-0.6,0-1.2-0.3-1.8h47.4
	l-5.5,10.5c-0.5-1.2-1.6-1.9-2.9-2h-27.2l-6.4,12.9h27.5l-5.3,10.8c-0.5-1.1-1.7-1.9-2.9-2h-23.7l-7.6,15.5h34.2
	C457.6,390.3,459.6,389.7,461.2,388.5L461.2,388.5z M723,388.5l-5,10.5h-40.3l24.8-50.5c0.3-0.6,0.4-1.3,0.3-2
	c0-0.6-0.1-1.2-0.3-1.8h16.1l-22.5,45.6h21.6C719.6,390.3,721.5,389.7,723,388.5L723,388.5z M337,399l24.5-50.3
	c0.3-0.6,0.4-1.3,0.3-2c0-0.6-0.1-1.2-0.3-1.8h28.4c5.5,0,15.8,0,15.8,12.9c-0.6,9.1-6.9,16.8-15.8,19l4.1,18.7
	c0.3,1.6,1.3,3,2.6,3.8h-15.2l-4.4-22.5h-14.9l-10.8,22.5H337V399z M392.5,357.5c-0.1-2.4-2.1-4.2-4.5-4.1c0,0,0,0,0,0h-14.4
	l-7.3,14.6h13.1C387.3,368,392.5,363,392.5,357.5L392.5,357.5z M557.6,344.7c0.2,0.6,0.3,1.2,0.3,1.8c0,0.6-0.3,1.5-0.3,2L533.1,399
	h14.3l26.6-54.3L557.6,344.7z M749.3,344.7c0.2,0.6,0.3,1.2,0.3,1.8c0,0.6-0.3,1.5-0.3,2L724.7,399H739l26.6-54.3H749.3z
	 M583.9,344.7h54.9l-5.2,10.8c-0.5-1.1-1.7-1.9-2.9-2h-14.6L593.9,399h-14.3l22.2-45.6h-17.8c-1.9,0.1-3.8,0.8-5.3,2L583.9,344.7
	L583.9,344.7z M654.3,344.7c-0.1,1.6-0.7,3.2-1.8,4.4l-43.2,50h12.6l10.2-12.3h26.6L659,399h13.2l-2.9-54.3L654.3,344.7z M639.4,378
	l18.4-22.2l0.6,22.2H639.4z M790.2,344.7c-0.1,1.6-0.7,3.2-1.8,4.4l-43.2,50h12.6l10.3-12.3h26.6l0.3,12.3H808l-2.9-54.3
	L790.2,344.7z M775.3,378l18.7-22.2l0.6,22.2H775.3z M487.8,352.3l1.8-3.5c0.4-0.6,0.6-1.3,0.6-2c0-0.6-0.1-1.2-0.3-1.8h14
	l13.2,37.7l16.7-33.9c0.4-0.6,0.6-1.3,0.6-2c0-0.6,0-1.2-0.3-1.8h11.7l-26.9,54h-10.2l-14-40.3L474.7,399h-10L487.8,352.3z"/>
<path id="Path_9166" class="st1" d="M165.2,296.7l-59,5.8l-39.8,78.9c31.6,0,47.6-2.9,66-29.2C144.5,334.4,155.4,315.9,165.2,296.7z
	"/>
<path id="Path_9167" class="st1" d="M325,223.7l4.7-8.8H205.3c-42.1,0-63.7,14.3-76.9,40.6l-10.2,20.7h56.7
	c19.9-38.6,44.4-51.7,104.3-52.6H325z"/>
<path id="Path_9168" class="st1" d="M321.2,232.2c-76,0.6-88.5,13.1-105.5,44.1h83.9L321.2,232.2z"/>
<path id="Path_9169" class="st2" d="M240.9,340.9c-4.9,28-26.9,50-54.9,54.9c-9.2,1.6-18.5,2.6-27.8,2.9C147.1,399,58,399,58,399
	l3.8-7.9c0,0,33.9-0.3,38.6-0.3c11-0.2,22.1-1,33-2.3c23.3-2,42.8-18.3,48.8-40.9l6.7-22.8c3.8-19.3,20.7-33.2,40.3-33.3l64.9-4.1
	l-3.2,6.4L271,295c-14.8,1.1-26.7,12.7-28.3,27.5L240.9,340.9z"/>
</svg>
